{
	"asset":{
		"generator":"Khronos glTF Blender I/O v4.0.44",
		"version":"2.0"
	},
	"scene":0,
	"scenes":[
		{
			"name":"Scene",
			"nodes":[
				0,
				1
			]
		}
	],
	"nodes":[
		{
			"mesh":0,
			"name":"Plane-col"
		},
		{
			"mesh":1,
			"name":"NavMesh-navmesh"
		}
	],
	"materials":[
		{
			"doubleSided":true,
			"name":"Material.001",
			"pbrMetallicRoughness":{
				"baseColorFactor":[
					0.800000011920929,
					0.800000011920929,
					0.800000011920929,
					1
				],
				"metallicFactor":0,
				"roughnessFactor":0.5
			}
		},
		{
			"doubleSided":true,
			"name":"Material.002",
			"pbrMetallicRoughness":{
				"baseColorFactor":[
					0.800000011920929,
					0.800000011920929,
					0.800000011920929,
					1
				],
				"metallicFactor":0,
				"roughnessFactor":0.5
			}
		}
	],
	"meshes":[
		{
			"name":"Plane.001",
			"primitives":[
				{
					"attributes":{
						"POSITION":0,
						"NORMAL":1,
						"TEXCOORD_0":2
					},
					"indices":3,
					"material":0
				},
				{
					"attributes":{
						"POSITION":4,
						"NORMAL":5,
						"TEXCOORD_0":6
					},
					"indices":7,
					"material":1
				}
			]
		},
		{
			"name":"Floor",
			"primitives":[
				{
					"attributes":{
						"POSITION":8,
						"NORMAL":9,
						"TEXCOORD_0":10
					},
					"indices":11
				}
			]
		}
	],
	"accessors":[
		{
			"bufferView":0,
			"componentType":5126,
			"count":2900,
			"max":[
				64.99984741210938,
				44,
				65.15384674072266
			],
			"min":[
				-65,
				0,
				-64.84588623046875
			],
			"type":"VEC3"
		},
		{
			"bufferView":1,
			"componentType":5126,
			"count":2900,
			"type":"VEC3"
		},
		{
			"bufferView":2,
			"componentType":5126,
			"count":2900,
			"type":"VEC2"
		},
		{
			"bufferView":3,
			"componentType":5123,
			"count":5922,
			"type":"SCALAR"
		},
		{
			"bufferView":4,
			"componentType":5126,
			"count":224,
			"max":[
				60,
				43,
				60
			],
			"min":[
				-60,
				0,
				-60
			],
			"type":"VEC3"
		},
		{
			"bufferView":5,
			"componentType":5126,
			"count":224,
			"type":"VEC3"
		},
		{
			"bufferView":6,
			"componentType":5126,
			"count":224,
			"type":"VEC2"
		},
		{
			"bufferView":7,
			"componentType":5123,
			"count":336,
			"type":"SCALAR"
		},
		{
			"bufferView":8,
			"componentType":5126,
			"count":188,
			"max":[
				64,
				33,
				64
			],
			"min":[
				-64,
				0.1428571492433548,
				-64
			],
			"type":"VEC3"
		},
		{
			"bufferView":9,
			"componentType":5126,
			"count":188,
			"type":"VEC3"
		},
		{
			"bufferView":10,
			"componentType":5126,
			"count":188,
			"type":"VEC2"
		},
		{
			"bufferView":11,
			"componentType":5123,
			"count":390,
			"type":"SCALAR"
		}
	],
	"bufferViews":[
		{
			"buffer":0,
			"byteLength":34800,
			"byteOffset":0,
			"target":34962
		},
		{
			"buffer":0,
			"byteLength":34800,
			"byteOffset":34800,
			"target":34962
		},
		{
			"buffer":0,
			"byteLength":23200,
			"byteOffset":69600,
			"target":34962
		},
		{
			"buffer":0,
			"byteLength":11844,
			"byteOffset":92800,
			"target":34963
		},
		{
			"buffer":0,
			"byteLength":2688,
			"byteOffset":104644,
			"target":34962
		},
		{
			"buffer":0,
			"byteLength":2688,
			"byteOffset":107332,
			"target":34962
		},
		{
			"buffer":0,
			"byteLength":1792,
			"byteOffset":110020,
			"target":34962
		},
		{
			"buffer":0,
			"byteLength":672,
			"byteOffset":111812,
			"target":34963
		},
		{
			"buffer":0,
			"byteLength":2256,
			"byteOffset":112484,
			"target":34962
		},
		{
			"buffer":0,
			"byteLength":2256,
			"byteOffset":114740,
			"target":34962
		},
		{
			"buffer":0,
			"byteLength":1504,
			"byteOffset":116996,
			"target":34962
		},
		{
			"buffer":0,
			"byteLength":780,
			"byteOffset":118500,
			"target":34963
		}
	],
	"buffers":[
		{
			"byteLength":119280,
			"uri":"Environment.bin"
		}
	]
}
