{
	"asset":{
		"generator":"Khronos glTF Blender I/O v4.0.44",
		"version":"2.0"
	},
	"extensionsUsed":[
		"KHR_materials_specular",
		"KHR_materials_ior"
	],
	"scene":0,
	"scenes":[
		{
			"name":"Scene",
			"nodes":[
				0
			]
		}
	],
	"nodes":[
		{
			"mesh":0,
			"name":"Pistol-rigid"
		}
	],
	"materials":[
		{
			"doubleSided":true,
			"extensions":{
				"KHR_materials_specular":{
					"specularFactor":0.20000000298023224
				},
				"KHR_materials_ior":{
					"ior":1.4500000476837158
				}
			},
			"name":"PistolBlack",
			"pbrMetallicRoughness":{
				"baseColorFactor":[
					0.022249735891819,
					0.022249735891819,
					0.022249735891819,
					1
				],
				"metallicFactor":0,
				"roughnessFactor":0.5
			}
		},
		{
			"doubleSided":true,
			"name":"PistolGrey",
			"pbrMetallicRoughness":{
				"baseColorFactor":[
					0.10948172211647034,
					0.10948172211647034,
					0.10948172211647034,
					1
				],
				"metallicFactor":0,
				"roughnessFactor":0.5
			}
		}
	],
	"meshes":[
		{
			"name":"Cube",
			"primitives":[
				{
					"attributes":{
						"POSITION":0,
						"NORMAL":1,
						"TEXCOORD_0":2
					},
					"indices":3,
					"material":0
				},
				{
					"attributes":{
						"POSITION":4,
						"NORMAL":5,
						"TEXCOORD_0":6
					},
					"indices":7,
					"material":1
				}
			]
		}
	],
	"accessors":[
		{
			"bufferView":0,
			"componentType":5126,
			"count":166,
			"max":[
				0.02236984483897686,
				0.10000002384185791,
				0.06679320335388184
			],
			"min":[
				-0.022369854152202606,
				-0.10000002384185791,
				-0.25
			],
			"type":"VEC3"
		},
		{
			"bufferView":1,
			"componentType":5126,
			"count":166,
			"type":"VEC3"
		},
		{
			"bufferView":2,
			"componentType":5126,
			"count":166,
			"type":"VEC2"
		},
		{
			"bufferView":3,
			"componentType":5123,
			"count":270,
			"type":"SCALAR"
		},
		{
			"bufferView":4,
			"componentType":5126,
			"count":246,
			"max":[
				0.016721075400710106,
				0.08256035298109055,
				0.07126989960670471
			],
			"min":[
				-0.016721069812774658,
				0.045242711901664734,
				-0.2537812292575836
			],
			"type":"VEC3"
		},
		{
			"bufferView":5,
			"componentType":5126,
			"count":246,
			"type":"VEC3"
		},
		{
			"bufferView":6,
			"componentType":5126,
			"count":246,
			"type":"VEC2"
		},
		{
			"bufferView":7,
			"componentType":5123,
			"count":504,
			"type":"SCALAR"
		}
	],
	"bufferViews":[
		{
			"buffer":0,
			"byteLength":1992,
			"byteOffset":0,
			"target":34962
		},
		{
			"buffer":0,
			"byteLength":1992,
			"byteOffset":1992,
			"target":34962
		},
		{
			"buffer":0,
			"byteLength":1328,
			"byteOffset":3984,
			"target":34962
		},
		{
			"buffer":0,
			"byteLength":540,
			"byteOffset":5312,
			"target":34963
		},
		{
			"buffer":0,
			"byteLength":2952,
			"byteOffset":5852,
			"target":34962
		},
		{
			"buffer":0,
			"byteLength":2952,
			"byteOffset":8804,
			"target":34962
		},
		{
			"buffer":0,
			"byteLength":1968,
			"byteOffset":11756,
			"target":34962
		},
		{
			"buffer":0,
			"byteLength":1008,
			"byteOffset":13724,
			"target":34963
		}
	],
	"buffers":[
		{
			"byteLength":14732,
			"uri":"Pistol.bin"
		}
	]
}
